# xmcd
#
# Track frame offsets:
#	150
#	4295
#	20322
#	33910
#	45862
#	57110
#	63325
#	80570
#	89642
#	99555
#	114475
#	124787
#	135395
#	148540
#	161515
#	176390
#	187927
#	196740
#	208215
#	215865
#
# Disc length: 3072 seconds
#
# Revision: 2
# Processed by: cddbd v1.5.2PL0 Copyright (c) Steve Scherf et al.
# Submitted via: audiograbber 1.83.01
#
DISCID=0e0bfe14
DTITLE=Various Artist - Rekiretki - 40 iloista joululaulua CD 1 2002
DYEAR=2002
DGENRE=Joululaulut
TTITLE0=Tapiolan kuoro 1973 - Kilisee, kilisee kulkunen
TTITLE1=Laura Voutilainen 1997 - Rekiretki
TTITLE2=Jaakko Ryhänen, soolotrumpetti Jouko Harjanne 1995 - Oi, sä riemuisa
TTITLE3=Ylioppilaskunnan Laulajat 2000 - Oi kuusipuu
TTITLE4=Joel Hallikainen 1996 - Talven ihmemaa
TTITLE5=Candomino-kuoro, Tapio Tiitu piano, Inna Vintturi ja Selja Flinck huilu
TTITLE5=t 1994 - Laulu joulupukille (Siellä missä tunturit ne kohoaa)
TTITLE6=Ressu Redford 1994 - Taas joulu saapuu
TTITLE7=Tonttu-orkesteri, Pekka Hartonen 1984 - Nisse-polkka
TTITLE8=Candomino-kuoro, Tapio Tiitu piano 1994 - Petteri punakuono
TTITLE9=Laura Voutilainen 1997 - Kop kop kop
TTITLE10=Candomino-kuoro, Tapio Tiitu piano, Kullervo Latvanen basso 1994 - Jou
TTITLE10=lupukki, joulupukki
TTITLE11=Jukka Kuoppamäki 1997 - Tonttuvaari
TTITLE12=Laura Voutilainen 1997 - Kun joulupukki suukon sai
TTITLE13=Anna ja Kirka 1978 - Hajamielinen joulupukki
TTITLE14=Arja Koriseva 1991 - Saa joulu aikaan sen
TTITLE15=Danny ja Armi 1994 - Jouluaattona vasta
TTITLE16=Tonttu-orkesteri, Pekka Hartonen 1984 - Porsaita äidin
TTITLE17=Pasi Kaunisto 1975 - Jollei jouluna ole lunta
TTITLE18=Tapiolan kuoro 1973 - No, onkos tullut kesä
TTITLE19=Arja Koriseva 1994 - Milloin on joulu
EXTD=YEAR: 2002
EXTT0=
EXTT1=
EXTT2=
EXTT3=
EXTT4=
EXTT5=
EXTT6=
EXTT7=
EXTT8=
EXTT9=
EXTT10=
EXTT11=
EXTT12=
EXTT13=
EXTT14=
EXTT15=
EXTT16=
EXTT17=
EXTT18=
EXTT19=
PLAYORDER=
